<?xml version="1.0" encoding="utf-8"?>
<!-- Generator: Adobe Illustrator 19.2.1, SVG Export Plug-In . SVG Version: 6.00 Build 0)  -->
<svg version="1.1" id="Réteg_1" xmlns="http://www.w3.org/2000/svg" xmlns:xlink="http://www.w3.org/1999/xlink" x="0px" y="0px"
	 viewBox="0 0 355.5 250.5" style="enable-background:new 0 0 355.5 250.5;" xml:space="preserve">
<style type="text/css">
	.st0{fill:#4A4A4A;}
	.st1{fill:#CACACA;}
	.st2{fill:#F4F5F7;}
	.st3{fill:#D0D7DA;}
</style>
<title>mockup-tablet-portrait</title>
<path class="st0" d="M0,244.5L0,6c0-3.3,2.7-6,6-6l343.5,0c3.3,0,6,2.7,6,6v238.5c0,3.3-2.7,6-6,6H6C2.7,250.5,0,247.8,0,244.5
	L0,244.5z"/>
<path d="M25.9,233.9V16.6c0-0.8,0.7-1.5,1.5-1.5c0,0,0,0,0,0h300.9c0.8,0,1.5,0.6,1.5,1.5c0,0,0,0,0,0v217.3c0,0.8-0.7,1.5-1.5,1.5
	c0,0,0,0,0,0H27.4C26.6,235.4,25.9,234.7,25.9,233.9C25.9,233.9,25.9,233.9,25.9,233.9L25.9,233.9z"/>
<path class="st1" d="M344,119.5c3.2,0,5.7,2.5,5.8,5.7c0,3.2-2.5,5.7-5.7,5.8c-3.2,0-5.7-2.5-5.8-5.7c0,0,0,0,0-0.1
	C338.4,122.1,340.9,119.5,344,119.5L344,119.5z"/>
<path class="st2" d="M14.6,125c0,0.8-0.6,1.4-1.4,1.4s-1.4-0.6-1.4-1.4s0.6-1.4,1.4-1.4l0,0C13.9,123.6,14.6,124.2,14.6,125
	L14.6,125z"/>
<path class="st3" d="M10.9,125c0,1.3,1,2.3,2.3,2.3c1.3,0,2.3-1,2.3-2.3c0-1.3-1-2.3-2.3-2.3l0,0C11.9,122.7,10.9,123.7,10.9,125
	L10.9,125z M12.2,125c0-0.6,0.4-1,1-1c0.5,0,1,0.5,1,1c0,0.6-0.4,1-1,1S12.2,125.5,12.2,125L12.2,125z"/>
</svg>
