<svg xmlns="http://www.w3.org/2000/svg" viewBox="0 0 250.5 355.5"><defs><style>.a{fill:#4a4a4a;}.a,.b,.c,.d,.e{fill-rule:evenodd;}.c{fill:#cacaca;}.d{fill:#f4f5f7;}.e{fill:#d0d7da;}</style></defs><title>mockup-tablet-portrait</title><path class="a" d="M20.87,6523.43h238.5a6,6,0,0,1,6,6v343.5a6,6,0,0,1-6,6H20.87a6,6,0,0,1-6-6v-343.5a6,6,0,0,1,6-6h0Z" transform="translate(-14.87 -6523.43)"/><path class="b" d="M31.49,6549.33H248.75a1.51,1.51,0,0,1,1.5,1.55v300.9a1.51,1.51,0,0,1-1.5,1.55H31.49a1.51,1.51,0,0,1-1.5-1.55v-300.9a1.51,1.51,0,0,1,1.5-1.55h0Z" transform="translate(-14.87 -6523.43)"/><path class="c" d="M145.85,6867.47a5.73,5.73,0,1,1-5.7-5.7,5.75,5.75,0,0,1,5.7,5.7h0Z" transform="translate(-14.87 -6523.43)"/><path class="d" d="M140.39,6538a1.44,1.44,0,1,1,1.44-1.44,1.46,1.46,0,0,1-1.44,1.44h0Z" transform="translate(-14.87 -6523.43)"/><path class="e" d="M140.39,6534.29a2.28,2.28,0,1,0,2.28,2.28,2.28,2.28,0,0,0-2.28-2.28h0Zm0,1.32a1,1,0,0,1,1,1,1.05,1.05,0,0,1-1,1,1,1,0,0,1-1-1,1,1,0,0,1,1-1h0Z" transform="translate(-14.87 -6523.43)"/></svg>